<svg width="14" height="14" viewBox="0 0 14 14" fill="none" xmlns="http://www.w3.org/2000/svg">
<g clip-path="url(#clip0_111_106)">
<path fill-rule="evenodd" clip-rule="evenodd" d="M12.2771 9.37043C11.9026 8.89881 11.2945 8.21543 10.7739 8.15068C10.4571 8.11131 10.0931 8.37381 9.7344 8.62143C9.66439 8.65643 9.12364 8.97843 9.05802 8.99768C8.71152 9.09656 7.97215 9.12543 7.52502 8.71768C7.09452 8.32393 6.41377 7.59506 5.86427 6.92743C5.33927 6.23968 4.78889 5.41281 4.50714 4.90531C4.21314 4.37943 4.42489 3.68381 4.60689 3.37756C4.64014 3.32243 5.04264 2.90856 5.13277 2.81231L5.14589 2.82806C5.47927 2.54806 5.82839 2.26368 5.86777 1.95568C5.93252 1.44293 5.40839 0.696558 5.03389 0.224058C4.65939 -0.249317 4.07927 -1.07794 3.28914 -0.960692C2.99164 -0.916942 2.73527 -0.812817 2.48239 -0.663192L2.47539 -0.671067C2.46122 -0.660508 2.44721 -0.649715 2.43339 -0.638692L2.41152 -0.627317L2.41414 -0.623817C2.26889 -0.511817 1.85414 -0.202067 1.80689 -0.160067C1.29414 0.295808 0.522395 1.36943 1.11914 3.30056C1.56189 4.73556 2.50602 6.42081 3.79227 8.12531L3.78527 8.13143C3.84827 8.21368 3.91302 8.28806 3.97864 8.36768C4.03989 8.44906 4.10027 8.52956 4.16327 8.61006L4.17202 8.60393C5.53702 10.2481 6.96852 11.5623 8.27489 12.3376C10.0336 13.3806 11.284 12.9107 11.8615 12.5371C11.9158 12.5012 12.3288 12.1801 12.4688 12.0742L12.4723 12.0777C12.4775 12.0724 12.481 12.0654 12.488 12.0602C12.5006 12.0507 12.5132 12.041 12.5256 12.0313L12.5204 12.0243C12.7321 11.8196 12.9019 11.6008 13.0191 11.3252C13.3263 10.5998 12.6516 9.84381 12.2771 9.37043Z" fill="#8FD4FF"/>
</g>
<defs>
<clipPath id="clip0_111_106">
<rect width="14" height="14" fill="white"/>
</clipPath>
</defs>
</svg>
