<svg width="14" height="15" viewBox="0 0 14 15" fill="none" xmlns="http://www.w3.org/2000/svg">
<path d="M6.99999 9.83333C6.86369 9.8336 6.7316 9.78613 6.62665 9.69916L3.12665 6.7825C3.00753 6.68348 2.93261 6.5412 2.91839 6.38695C2.90417 6.2327 2.95181 6.07912 3.05082 5.96C3.14984 5.84087 3.29212 5.76596 3.44637 5.75174C3.60061 5.73751 3.75419 5.78515 3.87332 5.88416L6.99999 8.4975L10.1267 5.9775C10.1863 5.92904 10.255 5.89286 10.3287 5.87102C10.4024 5.84919 10.4797 5.84213 10.5561 5.85026C10.6325 5.8584 10.7066 5.88155 10.7741 5.9184C10.8415 5.95525 10.901 6.00507 10.9492 6.065C11.0026 6.12498 11.043 6.19534 11.068 6.27169C11.093 6.34803 11.1019 6.4287 11.0942 6.50866C11.0866 6.58861 11.0625 6.66612 11.0234 6.73633C10.9844 6.80654 10.9313 6.86793 10.8675 6.91666L7.36749 9.73416C7.25952 9.80738 7.13013 9.8423 6.99999 9.83333Z" fill="#C6CAD6"/>
</svg>
