<svg width="16" height="18" viewBox="0 0 16 18" fill="none" xmlns="http://www.w3.org/2000/svg">
<path d="M8 1C4.66563 1 2 3.66563 2 7C2 8.15312 2.34375 9.04375 2.94062 9.94687L7.36875 16.6656C7.50313 16.8687 7.73438 17 8 17C8.26562 17 8.5 16.8656 8.63125 16.6656L13.0594 9.94687C13.6562 9.04375 14 8.15312 14 7C14 3.66563 11.3344 1 8 1ZM8 10.3313C6.15938 10.3313 4.66563 8.8375 4.66563 6.99375C4.66563 5.15 6.15938 3.65625 8 3.65625C9.84062 3.65625 11.3344 5.15 11.3344 6.99375C11.3344 8.8375 9.84062 10.3313 8 10.3313Z" fill="#8FD4FF"/>
</svg>
