<svg width="16" height="16" viewBox="0 0 16 16" fill="none" xmlns="http://www.w3.org/2000/svg">
<path d="M13.25 1.5H2.75C2.28602 1.5005 1.84119 1.68503 1.51311 2.01311C1.18503 2.34119 1.0005 2.78602 1 3.25V10.75C1.0005 11.214 1.18503 11.6588 1.51311 11.9869C1.84119 12.315 2.28602 12.4995 2.75 12.5H13.25C13.714 12.4995 14.1588 12.315 14.4869 11.9869C14.815 11.6588 14.9995 11.214 15 10.75V3.25C14.9995 2.78602 14.815 2.34119 14.4869 2.01311C14.1588 1.68503 13.714 1.5005 13.25 1.5ZM12.8069 4.39469L8.30688 7.89469C8.21912 7.9629 8.11115 7.99994 8 7.99994C7.88885 7.99994 7.78088 7.9629 7.69312 7.89469L3.19313 4.39469C3.14025 4.35476 3.09585 4.30472 3.06248 4.24749C3.02911 4.19025 3.00746 4.12695 2.99877 4.06127C2.99007 3.99559 2.99452 3.92884 3.01185 3.86489C3.02919 3.80094 3.05905 3.74108 3.09972 3.68878C3.14039 3.63647 3.19104 3.59277 3.24874 3.56021C3.30645 3.52766 3.37004 3.50689 3.43584 3.49913C3.50164 3.49136 3.56832 3.49675 3.63201 3.51498C3.69571 3.53321 3.75515 3.56391 3.80687 3.60531L8 6.86656L12.1931 3.60531C12.298 3.52613 12.4298 3.4914 12.56 3.50864C12.6903 3.52587 12.8085 3.59369 12.8892 3.69741C12.9698 3.80114 13.0064 3.93244 12.991 4.06293C12.9756 4.19341 12.9095 4.31259 12.8069 4.39469Z" fill="#8FD4FF"/>
</svg>
